{"glyphs":{"0":{"ha":1151,"x_min":0,"x_max":0,"o":"m 906 660 l 906 165 l 246 165 l 246 660 z m 1071 0 l 1071 824 l 81 824 l 81 0 z "},"1":{"ha":326,"x_min":0,"x_max":0,"o":"m 246 824 l 81 824 l 81 0 l 246 0 z "},"2":{"ha":1151,"x_min":0,"x_max":0,"o":"m 1071 0 l 1071 165 l 246 165 l 246 329 l 1071 329 l 1071 824 l 81 824 l 81 660 l 906 660 l 906 494 l 81 494 l 81 0 z "},"3":{"ha":1151,"x_min":0,"x_max":0,"o":"m 1071 824 l 81 824 l 81 660 l 906 660 l 906 494 l 81 494 l 81 329 l 906 329 l 906 165 l 81 165 l 81 0 l 1071 0 z "},"4":{"ha":1151,"x_min":0,"x_max":0,"o":"m 906 329 l 906 0 l 1071 0 l 1071 824 l 906 824 l 906 494 l 246 494 l 246 824 l 81 824 l 81 329 z "},"5":{"ha":1151,"x_min":0,"x_max":0,"o":"m 1071 0 l 1071 494 l 246 494 l 246 660 l 1071 660 l 1071 824 l 81 824 l 81 329 l 906 329 l 906 165 l 81 165 l 81 0 z "},"6":{"ha":1151,"x_min":0,"x_max":0,"o":"m 906 329 l 906 165 l 246 165 l 246 329 z m 1071 0 l 1071 494 l 246 494 l 246 660 l 1071 660 l 1071 824 l 81 824 l 81 0 z "},"7":{"ha":1151,"x_min":0,"x_max":0,"o":"m 906 0 l 1071 0 l 1071 824 l 81 824 l 81 660 l 906 660 z "},"8":{"ha":1151,"x_min":0,"x_max":0,"o":"m 906 329 l 906 165 l 246 165 l 246 329 z m 906 660 l 906 494 l 246 494 l 246 660 z m 1071 0 l 1071 824 l 81 824 l 81 0 z "},"9":{"ha":1151,"x_min":0,"x_max":0,"o":"m 906 660 l 906 494 l 246 494 l 246 660 z m 1071 0 l 1071 824 l 81 824 l 81 329 l 906 329 l 906 165 l 81 165 l 81 0 z "},"\u0017":{"ha":660,"x_min":0,"x_max":0,"o":""}," ":{"ha":660,"x_min":0,"x_max":0,"o":""},"!":{"ha":326,"x_min":0,"x_max":0,"o":"m 246 824 l 81 824 l 81 329 l 246 329 z m 246 165 l 81 165 l 81 0 l 246 0 z "},"\"":{"ha":657,"x_min":0,"x_max":0,"o":"m 575 1154 l 411 1154 l 411 824 l 575 824 z m 246 1154 l 81 1154 l 81 824 l 246 824 z "},"#":{"ha":986,"x_min":0,"x_max":0,"o":"m 906 329 l 740 329 l 740 494 l 906 494 l 906 660 l 740 660 l 740 824 l 575 824 l 575 660 l 411 660 l 411 824 l 246 824 l 246 660 l 81 660 l 81 494 l 246 494 l 246 329 l 81 329 l 81 165 l 246 165 l 246 0 l 411 0 l 411 165 l 575 165 l 575 0 l 740 0 l 740 165 l 906 165 z m 411 329 l 411 494 l 575 494 l 575 329 z "},"$":{"ha":1151,"x_min":0,"x_max":0,"o":"m 1071 494 l 658 494 l 658 660 l 1071 660 l 1071 824 l 658 824 l 658 989 l 493 989 l 493 824 l 81 824 l 81 329 l 493 329 l 493 165 l 81 165 l 81 0 l 493 0 l 493 -165 l 658 -165 l 658 0 l 1071 0 z m 658 165 l 658 329 l 906 329 l 906 165 z m 246 494 l 246 660 l 493 660 l 493 494 z "},"%":{"ha":1151,"x_min":0,"x_max":0,"o":"m 411 824 l 81 824 l 81 660 l 411 660 z m 839 824 l 81 0 l 313 0 l 1071 824 z m 1071 165 l 740 165 l 740 0 l 1071 0 z "},"&":{"ha":1151,"x_min":0,"x_max":0,"o":"m 1071 165 l 658 165 l 658 329 l 1071 329 l 1071 494 l 658 494 l 658 660 l 1071 660 l 1071 824 l 658 824 l 658 989 l 493 989 l 493 824 l 81 824 l 81 660 l 493 660 l 493 494 l 81 494 l 81 329 l 493 329 l 493 165 l 81 165 l 81 0 l 493 0 l 493 -165 l 658 -165 l 658 0 l 1071 0 z "},"'":{"ha":326,"x_min":0,"x_max":0,"o":"m 246 1154 l 81 1154 l 81 824 l 246 824 z "},"(":{"ha":492,"x_min":0,"x_max":0,"o":"m 411 -165 l 246 -165 l 246 1154 l 411 1154 l 411 1319 l 81 1319 l 81 -329 l 411 -329 z "},")":{"ha":492,"x_min":0,"x_max":0,"o":"m 411 1319 l 81 1319 l 81 1154 l 246 1154 l 246 -165 l 81 -165 l 81 -329 l 411 -329 z "},"*":{"ha":986,"x_min":0,"x_max":0,"o":"m 906 494 l 693 494 l 857 658 l 740 775 l 575 610 l 575 824 l 411 824 l 411 610 l 263 758 l 146 642 l 293 494 l 81 494 l 81 329 l 296 329 l 157 192 l 274 76 l 411 213 l 411 0 l 575 0 l 575 213 l 729 60 l 846 175 l 692 329 l 906 329 z "},"+":{"ha":657,"x_min":0,"x_max":0,"o":"m 411 329 l 575 329 l 575 494 l 411 494 l 411 660 l 246 660 l 246 494 l 81 494 l 81 329 l 246 329 l 246 165 l 411 165 z "},",":{"ha":326,"x_min":0,"x_max":0,"o":"m 246 165 l 81 165 l 81 -165 l 246 -165 z "},"-":{"ha":657,"x_min":0,"x_max":0,"o":"m 575 494 l 81 494 l 81 329 l 575 329 z "},".":{"ha":326,"x_min":0,"x_max":0,"o":"m 246 165 l 81 165 l 81 0 l 246 0 z "},"/":{"ha":1151,"x_min":0,"x_max":0,"o":"m 839 824 l 81 0 l 313 0 l 1071 824 z "},":":{"ha":326,"x_min":0,"x_max":0,"o":"m 246 660 l 81 660 l 81 494 l 246 494 z m 246 165 l 81 165 l 81 0 l 246 0 z "},";":{"ha":326,"x_min":0,"x_max":0,"o":"m 246 660 l 81 660 l 81 494 l 246 494 z m 246 165 l 81 165 l 81 -165 l 246 -165 z "},"=":{"ha":657,"x_min":0,"x_max":0,"o":"m 575 660 l 81 660 l 81 494 l 575 494 z m 575 329 l 81 329 l 81 165 l 575 165 z "},"?":{"ha":1151,"x_min":0,"x_max":0,"o":"m 1071 824 l 81 824 l 81 660 l 906 660 l 906 494 l 81 494 l 81 329 l 1071 329 z m 246 165 l 81 165 l 81 0 l 246 0 z "},"@":{"ha":1151,"x_min":0,"x_max":0,"o":"m 81 0 l 1071 0 l 1071 165 l 246 165 l 246 660 l 906 660 l 906 494 l 411 494 l 411 329 l 1071 329 l 1071 824 l 81 824 z "},"A":{"ha":1151,"x_min":0,"x_max":0,"o":"m 1071 824 l 81 824 l 81 660 l 1071 660 z m 1071 494 l 81 494 l 81 0 l 1071 0 z m 246 165 l 246 329 l 906 329 l 906 165 z "},"B":{"ha":1151,"x_min":0,"x_max":0,"o":"m 1071 824 l 246 824 l 246 1154 l 81 1154 l 81 0 l 1071 0 z m 246 165 l 246 660 l 906 660 l 906 165 z "},"C":{"ha":1151,"x_min":0,"x_max":0,"o":"m 1071 0 l 1071 165 l 246 165 l 246 660 l 1071 660 l 1071 824 l 81 824 l 81 0 z "},"D":{"ha":1151,"x_min":0,"x_max":0,"o":"m 1071 1154 l 906 1154 l 906 824 l 81 824 l 81 0 l 1071 0 z m 246 165 l 246 660 l 906 660 l 906 165 z "},"E":{"ha":1151,"x_min":0,"x_max":0,"o":"m 1071 824 l 81 824 l 81 660 l 1071 660 z m 1071 494 l 81 494 l 81 329 l 1071 329 z m 1071 165 l 81 165 l 81 0 l 1071 0 z "},"F":{"ha":1151,"x_min":0,"x_max":0,"o":"m 246 329 l 1071 329 l 1071 494 l 246 494 l 246 660 l 1071 660 l 1071 824 l 81 824 l 81 0 l 246 0 z "},"G":{"ha":1151,"x_min":0,"x_max":0,"o":"m 1071 824 l 81 824 l 81 0 l 906 0 l 906 -165 l 81 -165 l 81 -329 l 1071 -329 z m 246 165 l 246 660 l 906 660 l 906 165 z "},"H":{"ha":1151,"x_min":0,"x_max":0,"o":"m 1071 824 l 246 824 l 246 1154 l 81 1154 l 81 0 l 246 0 l 246 660 l 906 660 l 906 0 l 1071 0 z "},"I":{"ha":326,"x_min":0,"x_max":0,"o":"m 246 824 l 81 824 l 81 0 l 246 0 z "},"J":{"ha":1151,"x_min":0,"x_max":0,"o":"m 1071 824 l 906 824 l 906 -165 l 81 -165 l 81 -329 l 1071 -329 z "},"K":{"ha":1151,"x_min":0,"x_max":0,"o":"m 450 660 l 1071 660 l 1071 824 l 246 824 l 246 1154 l 81 1154 l 81 0 l 246 0 l 246 650 l 856 0 l 1071 0 z "},"L":{"ha":326,"x_min":0,"x_max":0,"o":"m 246 1154 l 81 1154 l 81 0 l 246 0 z "},"M":{"ha":1151,"x_min":0,"x_max":0,"o":"m 1071 824 l 81 824 l 81 0 l 246 0 l 246 660 l 493 660 l 493 0 l 658 0 l 658 660 l 906 660 l 906 0 l 1071 0 z "},"N":{"ha":1151,"x_min":0,"x_max":0,"o":"m 246 660 l 906 660 l 906 0 l 1071 0 l 1071 824 l 81 824 l 81 0 l 246 0 z "},"O":{"ha":1151,"x_min":0,"x_max":0,"o":"m 1071 824 l 81 824 l 81 0 l 1071 0 z m 246 165 l 246 660 l 906 660 l 906 165 z "},"P":{"ha":1151,"x_min":0,"x_max":0,"o":"m 1071 824 l 81 824 l 81 -329 l 246 -329 l 246 0 l 1071 0 z m 246 165 l 246 660 l 906 660 l 906 165 z "},"Q":{"ha":1151,"x_min":0,"x_max":0,"o":"m 1071 824 l 81 824 l 81 0 l 906 0 l 906 -329 l 1071 -329 z m 246 165 l 246 660 l 906 660 l 906 165 z "},"R":{"ha":1151,"x_min":0,"x_max":0,"o":"m 246 660 l 1071 660 l 1071 824 l 81 824 l 81 0 l 246 0 z "},"S":{"ha":1151,"x_min":0,"x_max":0,"o":"m 1071 0 l 1071 494 l 246 494 l 246 660 l 1071 660 l 1071 824 l 81 824 l 81 329 l 906 329 l 906 165 l 81 165 l 81 0 z "},"T":{"ha":1151,"x_min":0,"x_max":0,"o":"m 1071 165 l 246 165 l 246 660 l 1071 660 l 1071 824 l 246 824 l 246 1154 l 81 1154 l 81 0 l 1071 0 z "},"U":{"ha":1151,"x_min":0,"x_max":0,"o":"m 1071 0 l 1071 824 l 906 824 l 906 165 l 246 165 l 246 824 l 81 824 l 81 0 z "},"V":{"ha":1151,"x_min":0,"x_max":0,"o":"m 889 824 l 575 197 l 263 824 l 81 824 l 493 0 l 658 0 l 1071 824 z "},"W":{"ha":1151,"x_min":0,"x_max":0,"o":"m 1071 824 l 906 824 l 906 165 l 658 165 l 658 824 l 493 824 l 493 165 l 246 165 l 246 824 l 81 824 l 81 0 l 1071 0 z "},"X":{"ha":1151,"x_min":0,"x_max":0,"o":"m 692 413 l 1071 824 l 839 824 l 575 538 l 313 824 l 81 824 l 460 413 l 81 0 l 313 0 l 575 288 l 839 0 l 1071 0 z "},"Y":{"ha":1151,"x_min":0,"x_max":0,"o":"m 1071 824 l 906 824 l 906 165 l 246 165 l 246 824 l 81 824 l 81 0 l 906 0 l 906 -165 l 81 -165 l 81 -329 l 1071 -329 z "},"Z":{"ha":1151,"x_min":0,"x_max":0,"o":"m 1071 165 l 464 165 l 1071 824 l 81 824 l 81 660 l 688 660 l 81 0 l 1071 0 z "},"[":{"ha":492,"x_min":0,"x_max":0,"o":"m 411 -165 l 246 -165 l 246 1154 l 411 1154 l 411 1319 l 81 1319 l 81 -329 l 411 -329 z "},"\\":{"ha":1151,"x_min":0,"x_max":0,"o":"m 313 824 l 81 824 l 839 0 l 1071 0 z "},"]":{"ha":492,"x_min":0,"x_max":0,"o":"m 411 1319 l 81 1319 l 81 1154 l 246 1154 l 246 -165 l 81 -165 l 81 -329 l 411 -329 z "},"^":{"ha":1151,"x_min":0,"x_max":0,"o":"m 575 956 l 742 621 l 924 621 l 658 1154 l 493 1154 l 226 621 l 407 621 z "},"_":{"ha":657,"x_min":0,"x_max":0,"o":"m 81 -329 l 740 -329 l 740 -165 l 81 -165 z "},"`":{"ha":1151,"x_min":0,"x_max":0,"o":"m 353 978 l 653 944 l 653 1079 l 353 1113 z "},"a":{"ha":1151,"x_min":0,"x_max":0,"o":"m 1153 1319 l -1 1319 l -1 -329 l 1153 -329 z m 81 660 l 81 824 l 1071 824 l 1071 660 z m 81 0 l 81 494 l 1071 494 l 1071 0 z m 906 329 l 246 329 l 246 165 l 906 165 z "},"b":{"ha":1151,"x_min":0,"x_max":0,"o":"m 1153 1319 l -1 1319 l -1 -329 l 1153 -329 z m 81 0 l 81 1154 l 246 1154 l 246 824 l 1071 824 l 1071 0 z m 906 660 l 246 660 l 246 165 l 906 165 z "},"c":{"ha":1151,"x_min":0,"x_max":0,"o":"m 1153 1319 l -1 1319 l -1 -329 l 1153 -329 z m 81 0 l 81 824 l 1071 824 l 1071 660 l 246 660 l 246 165 l 1071 165 l 1071 0 z "},"d":{"ha":1151,"x_min":0,"x_max":0,"o":"m 1153 1319 l -1 1319 l -1 -329 l 1153 -329 z m 81 0 l 81 824 l 906 824 l 906 1154 l 1071 1154 l 1071 0 z m 906 660 l 246 660 l 246 165 l 906 165 z "},"e":{"ha":1151,"x_min":0,"x_max":0,"o":"m 1153 1319 l -1 1319 l -1 -329 l 1153 -329 z m 81 660 l 81 824 l 1071 824 l 1071 660 z m 81 329 l 81 494 l 1071 494 l 1071 329 z m 81 0 l 81 165 l 1071 165 l 1071 0 z "},"f":{"ha":1151,"x_min":0,"x_max":0,"o":"m 1153 1319 l -1 1319 l -1 -329 l 1153 -329 z m 246 329 l 246 0 l 81 0 l 81 824 l 1071 824 l 1071 660 l 246 660 l 246 494 l 1071 494 l 1071 329 z "},"g":{"ha":1151,"x_min":0,"x_max":0,"o":"m 1153 -329 l 1153 1319 l -1 1319 l -1 -329 l 81 -329 l 81 -165 l 906 -165 l 906 0 l 81 0 l 81 824 l 1071 824 l 1071 -329 z m 906 660 l 246 660 l 246 165 l 906 165 z "},"h":{"ha":1151,"x_min":0,"x_max":0,"o":"m 1153 1319 l -1 1319 l -1 -329 l 1153 -329 z m 906 0 l 906 660 l 246 660 l 246 0 l 81 0 l 81 1154 l 246 1154 l 246 824 l 1071 824 l 1071 0 z "},"i":{"ha":326,"x_min":0,"x_max":0,"o":"m 328 1319 l -1 1319 l -1 -329 l 328 -329 z m 81 0 l 81 824 l 246 824 l 246 0 z "},"j":{"ha":1151,"x_min":0,"x_max":0,"o":"m 1153 -329 l 1153 1319 l -1 1319 l -1 -329 l 81 -329 l 81 -165 l 906 -165 l 906 824 l 1071 824 l 1071 -329 z "},"k":{"ha":1151,"x_min":0,"x_max":0,"o":"m 1153 1319 l -1 1319 l -1 -329 l 1153 -329 z m 856 0 l 246 650 l 246 0 l 81 0 l 81 1154 l 246 1154 l 246 824 l 1071 824 l 1071 660 l 450 660 l 1071 0 z "},"l":{"ha":326,"x_min":0,"x_max":0,"o":"m 328 1319 l -1 1319 l -1 -329 l 328 -329 z m 81 0 l 81 1154 l 246 1154 l 246 0 z "},"m":{"ha":1151,"x_min":0,"x_max":0,"o":"m 1153 1319 l -1 1319 l -1 -329 l 1153 -329 z m 906 0 l 906 660 l 658 660 l 658 0 l 493 0 l 493 660 l 246 660 l 246 0 l 81 0 l 81 824 l 1071 824 l 1071 0 z "},"n":{"ha":1151,"x_min":0,"x_max":0,"o":"m 1153 1319 l -1 1319 l -1 -329 l 1153 -329 z m 906 0 l 906 660 l 246 660 l 246 0 l 81 0 l 81 824 l 1071 824 l 1071 0 z "},"o":{"ha":1151,"x_min":0,"x_max":0,"o":"m 1153 1319 l -1 1319 l -1 -329 l 1153 -329 z m 81 0 l 81 824 l 1071 824 l 1071 0 z m 906 660 l 246 660 l 246 165 l 906 165 z "},"p":{"ha":1151,"x_min":0,"x_max":0,"o":"m 246 0 l 246 -329 l 1153 -329 l 1153 1319 l -1 1319 l -1 -329 l 81 -329 l 81 824 l 1071 824 l 1071 0 z m 906 660 l 246 660 l 246 165 l 906 165 z "},"q":{"ha":1151,"x_min":0,"x_max":0,"o":"m 1153 -329 l 1153 1319 l -1 1319 l -1 -329 l 906 -329 l 906 0 l 81 0 l 81 824 l 1071 824 l 1071 -329 z m 906 660 l 246 660 l 246 165 l 906 165 z "},"r":{"ha":1151,"x_min":0,"x_max":0,"o":"m 1153 1319 l -1 1319 l -1 -329 l 1153 -329 z m 246 660 l 246 0 l 81 0 l 81 824 l 1071 824 l 1071 660 z "},"s":{"ha":1151,"x_min":0,"x_max":0,"o":"m 1153 1319 l -1 1319 l -1 -329 l 1153 -329 z m 81 0 l 81 165 l 906 165 l 906 329 l 81 329 l 81 824 l 1071 824 l 1071 660 l 246 660 l 246 494 l 1071 494 l 1071 0 z "},"t":{"ha":1151,"x_min":0,"x_max":0,"o":"m 1153 1319 l -1 1319 l -1 -329 l 1153 -329 z m 81 0 l 81 1154 l 246 1154 l 246 824 l 1071 824 l 1071 660 l 246 660 l 246 165 l 1071 165 l 1071 0 z "},"u":{"ha":1151,"x_min":0,"x_max":0,"o":"m 1153 1319 l -1 1319 l -1 -329 l 1153 -329 z m 81 0 l 81 824 l 246 824 l 246 165 l 906 165 l 906 824 l 1071 824 l 1071 0 z "},"v":{"ha":1151,"x_min":0,"x_max":0,"o":"m 1153 1319 l -1 1319 l -1 -329 l 1153 -329 z m 658 0 l 493 0 l 81 824 l 263 824 l 575 197 l 889 824 l 1071 824 z "},"w":{"ha":1151,"x_min":0,"x_max":0,"o":"m 1153 1319 l -1 1319 l -1 -329 l 1153 -329 z m 81 0 l 81 824 l 246 824 l 246 165 l 493 165 l 493 824 l 658 824 l 658 165 l 906 165 l 906 824 l 1071 824 l 1071 0 z "},"x":{"ha":1151,"x_min":0,"x_max":0,"o":"m 1153 1319 l -1 1319 l -1 -329 l 1153 -329 z m 839 0 l 575 288 l 313 0 l 81 0 l 460 413 l 81 824 l 313 824 l 575 538 l 839 824 l 1071 824 l 692 413 l 1071 0 z "},"y":{"ha":1151,"x_min":0,"x_max":0,"o":"m 1153 -329 l 1153 1319 l -1 1319 l -1 -329 l 81 -329 l 81 -165 l 906 -165 l 906 0 l 81 0 l 81 824 l 246 824 l 246 165 l 906 165 l 906 824 l 1071 824 l 1071 -329 z "},"z":{"ha":1151,"x_min":0,"x_max":0,"o":"m 1153 1319 l -1 1319 l -1 -329 l 1153 -329 z m 81 0 l 688 660 l 81 660 l 81 824 l 1071 824 l 464 165 l 1071 165 l 1071 0 z "},"{":{"ha":492,"x_min":0,"x_max":0,"o":"m 411 -165 l 246 -165 l 246 1154 l 411 1154 l 411 1319 l 81 1319 l 81 -329 l 411 -329 z "},"|":{"ha":326,"x_min":0,"x_max":0,"o":"m 246 1154 l 81 1154 l 81 0 l 246 0 z "},"}":{"ha":492,"x_min":0,"x_max":0,"o":"m 411 1319 l 81 1319 l 81 1154 l 246 1154 l 246 -165 l 81 -165 l 81 -329 l 411 -329 z "}," ":{"ha":660,"x_min":0,"x_max":0,"o":""},"¡":{"ha":326,"x_min":0,"x_max":0,"o":"m 81 0 l 246 0 l 246 494 l 81 494 z m 81 660 l 246 660 l 246 824 l 81 824 z "},"¢":{"ha":1151,"x_min":0,"x_max":0,"o":"m 658 165 l 658 660 l 1071 660 l 1071 824 l 658 824 l 658 989 l 493 989 l 493 824 l 81 824 l 81 0 l 493 0 l 493 -165 l 658 -165 l 658 0 l 1071 0 l 1071 165 z m 246 660 l 493 660 l 493 165 l 246 165 z "},"£":{"ha":1181,"x_min":0,"x_max":0,"o":"m 1100 0 l 1100 165 l 275 165 l 275 358 l 883 358 l 883 508 l 275 508 l 275 660 l 1015 660 l 1015 824 l 111 824 l 111 508 l 42 508 l 42 358 l 111 358 l 111 165 l 42 165 l 42 0 z "},"¥":{"ha":1151,"x_min":0,"x_max":0,"o":"m 1083 256 l 658 256 l 658 329 l 686 388 l 1083 388 l 1083 519 l 751 519 l 1071 1154 l 889 1154 l 575 528 l 263 1154 l 81 1154 l 397 519 l 81 519 l 81 388 l 464 388 l 493 329 l 493 256 l 81 256 l 81 124 l 493 124 l 493 0 l 658 0 l 658 124 l 1083 124 z "},"¨":{"ha":1151,"x_min":0,"x_max":0,"o":"m 646 944 l 782 944 l 782 1079 l 646 1079 z m 388 944 l 522 944 l 522 1079 l 388 1079 z "},"©":{"ha":1343,"x_min":0,"x_max":0,"o":"m 67 572 b 672 -35 67 236 336 -35 b 1278 572 1006 -35 1278 236 b 672 1176 1278 906 1006 1176 b 67 572 336 1176 67 906 z m 139 568 b 675 1110 139 867 378 1110 b 1214 568 969 1110 1214 867 b 675 33 1214 274 969 33 b 139 568 378 33 139 274 z m 972 317 l 972 417 l 467 417 l 467 722 l 972 722 l 972 822 l 367 822 l 367 317 z "},"«":{"ha":614,"x_min":0,"x_max":0,"o":"m 324 575 l 324 678 l 67 544 l 67 447 l 324 319 l 324 418 l 156 497 z m 567 575 l 567 678 l 310 544 l 310 447 l 567 319 l 567 418 l 399 497 z "},"®":{"ha":888,"x_min":0,"x_max":0,"o":"m 443 1269 b 763 988 628 1269 763 1126 b 443 704 763 828 617 704 b 146 988 260 704 146 847 b 443 1269 146 1126 260 1269 z m 446 640 b 821 988 658 640 821 804 b 446 1338 821 1183 663 1338 b 76 988 229 1338 76 1176 b 446 640 76 804 229 640 z m 467 1094 b 507 1050 493 1094 507 1079 b 467 1008 507 1022 493 1008 l 404 1008 l 404 1094 z m 508 793 l 588 793 l 519 943 b 582 1050 564 971 582 999 b 465 1171 582 1128 536 1171 l 331 1171 l 331 793 l 404 793 l 404 932 l 443 932 z "},"¯":{"ha":1151,"x_min":0,"x_max":0,"o":"m 436 944 l 736 944 l 736 1079 l 436 1079 z "},"°":{"ha":796,"x_min":0,"x_max":0,"o":"m 685 1154 l 111 1154 l 111 608 l 685 608 z m 276 774 l 276 990 l 519 990 l 519 774 z "},"´":{"ha":1151,"x_min":0,"x_max":0,"o":"m 518 944 l 818 978 l 818 1113 l 518 1079 z "},"·":{"ha":326,"x_min":0,"x_max":0,"o":"m 246 661 l 81 661 l 81 496 l 246 496 z "},"¸":{"ha":1151,"x_min":0,"x_max":0,"o":"m 538 -161 l 665 -161 l 665 0 l 538 0 z "},"»":{"ha":633,"x_min":0,"x_max":0,"o":"m 328 422 l 328 319 l 586 453 l 586 550 l 328 678 l 328 579 l 496 501 z m 85 422 l 85 319 l 342 453 l 342 550 l 85 678 l 85 579 l 253 501 z "},"¿":{"ha":1151,"x_min":0,"x_max":0,"o":"m 81 0 l 1071 0 l 1071 165 l 246 165 l 246 329 l 1071 329 l 1071 494 l 81 494 z m 906 660 l 1071 660 l 1071 824 l 906 824 z "},"À":{"ha":1151,"x_min":0,"x_max":0,"o":"m 1071 494 l 81 494 l 81 0 l 1071 0 z m 1071 824 l 81 824 l 81 660 l 1071 660 z m 246 165 l 246 329 l 906 329 l 906 165 z m 353 978 l 653 944 l 653 1079 l 353 1113 z "},"Á":{"ha":1151,"x_min":0,"x_max":0,"o":"m 1071 494 l 81 494 l 81 0 l 1071 0 z m 1071 824 l 81 824 l 81 660 l 1071 660 z m 246 165 l 246 329 l 906 329 l 906 165 z m 518 944 l 818 978 l 818 1113 l 518 1079 z "},"Â":{"ha":1151,"x_min":0,"x_max":0,"o":"m 1071 494 l 81 494 l 81 0 l 1071 0 z m 1071 824 l 81 824 l 81 660 l 1071 660 z m 246 165 l 246 329 l 906 329 l 906 165 z m 428 944 l 743 944 l 613 1079 l 560 1079 z "},"Ã":{"ha":1151,"x_min":0,"x_max":0,"o":"m 1071 494 l 81 494 l 81 0 l 1071 0 z m 1071 824 l 81 824 l 81 660 l 1071 660 z m 246 165 l 246 329 l 906 329 l 906 165 z m 436 944 l 736 944 l 736 1079 l 436 1079 z "},"Ä":{"ha":1151,"x_min":0,"x_max":0,"o":"m 646 944 l 782 944 l 782 1079 l 646 1079 z m 1071 494 l 81 494 l 81 0 l 1071 0 z m 1071 824 l 81 824 l 81 660 l 1071 660 z m 246 165 l 246 329 l 906 329 l 906 165 z m 388 944 l 522 944 l 522 1079 l 388 1079 z "},"Å":{"ha":1151,"x_min":0,"x_max":0,"o":"m 1071 494 l 81 494 l 81 0 l 1071 0 z m 1071 824 l 81 824 l 81 660 l 1071 660 z m 246 165 l 246 329 l 906 329 l 906 165 z m 518 944 l 653 944 l 653 1079 l 518 1079 z "},"Æ":{"ha":2306,"x_min":0,"x_max":0,"o":"m 1071 494 l 81 494 l 81 0 l 1071 0 z m 2224 824 l 81 824 l 81 660 l 2224 660 z m 2224 494 l 1235 494 l 1235 329 l 2224 329 z m 2224 165 l 1235 165 l 1235 0 l 2224 0 z m 246 165 l 246 329 l 906 329 l 906 165 z "},"Ç":{"ha":1151,"x_min":0,"x_max":0,"o":"m 538 -161 l 665 -161 l 665 0 l 1071 0 l 1071 165 l 246 165 l 246 660 l 1071 660 l 1071 824 l 81 824 l 81 0 l 538 0 z "},"È":{"ha":1151,"x_min":0,"x_max":0,"o":"m 1071 824 l 81 824 l 81 660 l 1071 660 z m 1071 494 l 81 494 l 81 329 l 1071 329 z m 1071 165 l 81 165 l 81 0 l 1071 0 z m 353 978 l 653 944 l 653 1079 l 353 1113 z "},"É":{"ha":1151,"x_min":0,"x_max":0,"o":"m 1071 824 l 81 824 l 81 660 l 1071 660 z m 1071 494 l 81 494 l 81 329 l 1071 329 z m 1071 165 l 81 165 l 81 0 l 1071 0 z m 518 944 l 818 978 l 818 1113 l 518 1079 z "},"Ê":{"ha":1151,"x_min":0,"x_max":0,"o":"m 1071 824 l 81 824 l 81 660 l 1071 660 z m 1071 494 l 81 494 l 81 329 l 1071 329 z m 1071 165 l 81 165 l 81 0 l 1071 0 z m 428 944 l 743 944 l 613 1079 l 560 1079 z "},"Ë":{"ha":1151,"x_min":0,"x_max":0,"o":"m 697 944 l 833 944 l 833 1079 l 697 1079 z m 1071 824 l 81 824 l 81 660 l 1071 660 z m 1071 494 l 81 494 l 81 329 l 1071 329 z m 1071 165 l 81 165 l 81 0 l 1071 0 z m 351 944 l 486 944 l 486 1079 l 351 1079 z "},"Ì":{"ha":326,"x_min":0,"x_max":0,"o":"m 246 824 l 81 824 l 81 0 l 246 0 z m -1 971 l 246 944 l 231 1079 l -1 1104 z "},"Í":{"ha":326,"x_min":0,"x_max":0,"o":"m 246 824 l 81 824 l 81 0 l 246 0 z m 96 944 l 328 971 l 328 1104 l 96 1079 z "},"Î":{"ha":326,"x_min":0,"x_max":0,"o":"m 246 824 l 81 824 l 81 0 l 246 0 z m 4 944 l 319 944 l 188 1079 l 136 1079 z "},"Ï":{"ha":326,"x_min":0,"x_max":0,"o":"m 219 944 l 354 944 l 354 1079 l 219 1079 z m 246 824 l 81 824 l 81 0 l 246 0 z m -19 944 l 115 944 l 115 1079 l -19 1079 z "},"Ð":{"ha":1151,"x_min":0,"x_max":0,"o":"m 1153 1154 l 658 1154 l 658 989 l 906 989 l 906 824 l 81 824 l 81 0 l 1071 0 l 1071 989 l 1153 989 z m 246 165 l 246 660 l 906 660 l 906 165 z "},"Ñ":{"ha":1151,"x_min":0,"x_max":0,"o":"m 246 660 l 906 660 l 906 0 l 1071 0 l 1071 824 l 81 824 l 81 0 l 246 0 z m 436 944 l 736 944 l 736 1079 l 436 1079 z "},"Ò":{"ha":1151,"x_min":0,"x_max":0,"o":"m 1071 824 l 81 824 l 81 0 l 1071 0 z m 246 165 l 246 660 l 906 660 l 906 165 z m 353 978 l 653 944 l 653 1079 l 353 1113 z "},"Ó":{"ha":1151,"x_min":0,"x_max":0,"o":"m 1071 824 l 81 824 l 81 0 l 1071 0 z m 246 165 l 246 660 l 906 660 l 906 165 z m 518 944 l 818 978 l 818 1113 l 518 1079 z "},"Ô":{"ha":1151,"x_min":0,"x_max":0,"o":"m 1071 824 l 81 824 l 81 0 l 1071 0 z m 246 165 l 246 660 l 906 660 l 906 165 z m 428 944 l 743 944 l 613 1079 l 560 1079 z "},"Õ":{"ha":1151,"x_min":0,"x_max":0,"o":"m 1071 824 l 81 824 l 81 0 l 1071 0 z m 246 165 l 246 660 l 906 660 l 906 165 z m 436 944 l 736 944 l 736 1079 l 436 1079 z "},"Ö":{"ha":1151,"x_min":0,"x_max":0,"o":"m 676 944 l 811 944 l 811 1079 l 676 1079 z m 1071 824 l 81 824 l 81 0 l 1071 0 z m 246 165 l 246 660 l 906 660 l 906 165 z m 346 944 l 482 944 l 482 1079 l 346 1079 z "},"Ø":{"ha":1151,"x_min":0,"x_max":0,"o":"m 1071 0 l 1071 824 l 81 824 l 81 0 z m 906 165 l 343 165 l 906 576 z m 246 660 l 793 660 l 246 257 z "},"Ù":{"ha":1151,"x_min":0,"x_max":0,"o":"m 1071 0 l 1071 824 l 906 824 l 906 165 l 246 165 l 246 824 l 81 824 l 81 0 z m 353 978 l 653 944 l 653 1079 l 353 1113 z "},"Ú":{"ha":1151,"x_min":0,"x_max":0,"o":"m 1071 0 l 1071 824 l 906 824 l 906 165 l 246 165 l 246 824 l 81 824 l 81 0 z m 518 944 l 818 978 l 818 1113 l 518 1079 z "},"Û":{"ha":1151,"x_min":0,"x_max":0,"o":"m 1071 0 l 1071 824 l 906 824 l 906 165 l 246 165 l 246 824 l 81 824 l 81 0 z m 428 944 l 743 944 l 613 1079 l 560 1079 z "},"Ü":{"ha":1151,"x_min":0,"x_max":0,"o":"m 667 944 l 801 944 l 801 1079 l 667 1079 z m 1071 0 l 1071 824 l 906 824 l 906 165 l 246 165 l 246 824 l 81 824 l 81 0 z m 353 944 l 489 944 l 489 1079 l 353 1079 z "},"Ý":{"ha":1151,"x_min":0,"x_max":0,"o":"m 1071 824 l 906 824 l 906 165 l 246 165 l 246 824 l 81 824 l 81 0 l 906 0 l 906 -165 l 81 -165 l 81 -329 l 1071 -329 z m 426 944 l 726 978 l 726 1113 l 426 1079 z "},"Þ":{"ha":1151,"x_min":0,"x_max":0,"o":"m 1071 824 l 246 824 l 246 1154 l 81 1154 l 81 -329 l 246 -329 l 246 0 l 1071 0 z m 246 165 l 246 660 l 906 660 l 906 165 z "},"ß":{"ha":1151,"x_min":0,"x_max":0,"o":"m 1153 1319 l -1 1319 l -1 -329 l 1153 -329 z m 906 464 l 628 464 l 628 1003 l 246 1003 l 246 0 l 81 0 l 81 1154 l 794 1154 l 794 610 l 1075 610 l 1075 0 l 481 0 l 481 165 l 906 165 z "},"à":{"ha":1151,"x_min":0,"x_max":0,"o":"m 1153 1319 l -1 1319 l -1 -329 l 1153 -329 z m 81 660 l 81 824 l 1071 824 l 1071 660 z m 81 0 l 81 494 l 1071 494 l 1071 0 z m 906 329 l 246 329 l 246 165 l 906 165 z m 353 1113 l 653 1079 l 653 944 l 353 978 z "},"á":{"ha":1151,"x_min":0,"x_max":0,"o":"m 1153 1319 l -1 1319 l -1 -329 l 1153 -329 z m 81 660 l 81 824 l 1071 824 l 1071 660 z m 81 0 l 81 494 l 1071 494 l 1071 0 z m 906 329 l 246 329 l 246 165 l 906 165 z m 518 1079 l 818 1113 l 818 978 l 518 944 z "},"â":{"ha":1151,"x_min":0,"x_max":0,"o":"m 1153 1319 l -1 1319 l -1 -329 l 1153 -329 z m 81 660 l 81 824 l 1071 824 l 1071 660 z m 81 0 l 81 494 l 1071 494 l 1071 0 z m 906 329 l 246 329 l 246 165 l 906 165 z m 560 1079 l 613 1079 l 743 944 l 428 944 z "},"ã":{"ha":1151,"x_min":0,"x_max":0,"o":"m 1153 1319 l -1 1319 l -1 -329 l 1153 -329 z m 81 660 l 81 824 l 1071 824 l 1071 660 z m 81 0 l 81 494 l 1071 494 l 1071 0 z m 906 329 l 246 329 l 246 165 l 906 165 z m 451 1079 l 736 1079 l 736 944 l 451 944 z "},"ä":{"ha":1151,"x_min":0,"x_max":0,"o":"m 685 1079 l 819 1079 l 819 944 l 685 944 z m 1153 1319 l -1 1319 l -1 -329 l 1153 -329 z m 81 660 l 81 824 l 1071 824 l 1071 660 z m 81 0 l 81 494 l 1071 494 l 1071 0 z m 906 329 l 246 329 l 246 165 l 906 165 z m 357 1079 l 492 1079 l 492 944 l 357 944 z "},"å":{"ha":1151,"x_min":0,"x_max":0,"o":"m 1153 1319 l -1 1319 l -1 -329 l 1153 -329 z m 81 660 l 81 824 l 1071 824 l 1071 660 z m 81 0 l 81 494 l 1071 494 l 1071 0 z m 906 329 l 246 329 l 246 165 l 906 165 z m 518 1079 l 653 1079 l 653 944 l 518 944 z "},"æ":{"ha":2306,"x_min":0,"x_max":0,"o":"m 2307 1319 l -1 1319 l -1 -329 l 2307 -329 z m 81 0 l 81 494 l 1071 494 l 1071 0 z m 81 660 l 81 824 l 2224 824 l 2224 660 z m 1235 329 l 1235 494 l 2224 494 l 2224 329 z m 1235 0 l 1235 165 l 2224 165 l 2224 0 z m 906 329 l 246 329 l 246 165 l 906 165 z "},"ç":{"ha":1151,"x_min":0,"x_max":0,"o":"m 1153 1319 l -1 1319 l -1 -329 l 1153 -329 z m 503 -211 l 503 0 l 81 0 l 81 824 l 1071 824 l 1071 660 l 246 660 l 246 165 l 1071 165 l 1071 0 l 658 0 l 658 -211 z "},"è":{"ha":1151,"x_min":0,"x_max":0,"o":"m 1153 1319 l -1 1319 l -1 -329 l 1153 -329 z m 81 660 l 81 824 l 1071 824 l 1071 660 z m 81 329 l 81 494 l 1071 494 l 1071 329 z m 81 0 l 81 165 l 1071 165 l 1071 0 z m 353 1113 l 653 1079 l 653 944 l 353 978 z "},"é":{"ha":1151,"x_min":0,"x_max":0,"o":"m 1153 1319 l -1 1319 l -1 -329 l 1153 -329 z m 81 660 l 81 824 l 1071 824 l 1071 660 z m 81 329 l 81 494 l 1071 494 l 1071 329 z m 81 0 l 81 165 l 1071 165 l 1071 0 z m 518 1079 l 818 1113 l 818 978 l 518 944 z "},"ê":{"ha":1151,"x_min":0,"x_max":0,"o":"m 1153 1319 l -1 1319 l -1 -329 l 1153 -329 z m 81 660 l 81 824 l 1071 824 l 1071 660 z m 81 329 l 81 494 l 1071 494 l 1071 329 z m 81 0 l 81 165 l 1071 165 l 1071 0 z m 560 1079 l 613 1079 l 743 944 l 428 944 z "},"ë":{"ha":1151,"x_min":0,"x_max":0,"o":"m 1153 1319 l -1 1319 l -1 -329 l 1153 -329 z m 81 660 l 81 824 l 1071 824 l 1071 660 z m 81 329 l 81 494 l 1071 494 l 1071 329 z m 81 0 l 81 165 l 1071 165 l 1071 0 z m 685 1079 l 819 1079 l 819 944 l 685 944 z m 357 1079 l 492 1079 l 492 944 l 357 944 z "},"ì":{"ha":326,"x_min":0,"x_max":0,"o":"m 328 1319 l -1 1319 l -1 1104 l 235 1079 l 235 944 l -1 969 l -1 -329 l 328 -329 z m 81 0 l 81 824 l 246 824 l 246 0 z "},"í":{"ha":326,"x_min":0,"x_max":0,"o":"m 99 1079 l 328 1104 l 328 1319 l -1 1319 l -1 -329 l 328 -329 l 328 969 l 99 944 z m 81 0 l 81 824 l 246 824 l 246 0 z "},"î":{"ha":326,"x_min":0,"x_max":0,"o":"m 328 1319 l -1 1319 l -1 -329 l 328 -329 z m 81 0 l 81 824 l 246 824 l 246 0 z m 140 1079 l 193 1079 l 325 944 l 8 944 z "},"ï":{"ha":532,"x_min":0,"x_max":0,"o":"m 533 1319 l -3 1319 l -3 -329 l 533 -329 z m 183 0 l 183 824 l 349 824 l 349 0 z m 358 1079 l 493 1079 l 493 944 l 358 944 z m 31 1079 l 165 1079 l 165 944 l 31 944 z "},"ð":{"ha":1151,"x_min":0,"x_max":0,"o":"m 1153 989 l 1071 989 l 1071 0 l 81 0 l 81 824 l 906 824 l 906 989 l 658 989 l 658 1154 l 1153 1154 l 1153 1319 l -1 1319 l -1 -329 l 1153 -329 z m 906 165 l 906 660 l 246 660 l 246 165 z "},"ñ":{"ha":1151,"x_min":0,"x_max":0,"o":"m 1153 1319 l -1 1319 l -1 -329 l 1153 -329 z m 906 0 l 906 660 l 246 660 l 246 0 l 81 0 l 81 824 l 1071 824 l 1071 0 z m 436 1079 l 736 1079 l 736 944 l 436 944 z "},"ò":{"ha":1151,"x_min":0,"x_max":0,"o":"m 1153 1319 l -1 1319 l -1 -329 l 1153 -329 z m 81 0 l 81 824 l 1071 824 l 1071 0 z m 906 660 l 246 660 l 246 165 l 906 165 z m 353 1113 l 653 1079 l 653 944 l 353 978 z "},"ó":{"ha":1151,"x_min":0,"x_max":0,"o":"m 1153 1319 l -1 1319 l -1 -329 l 1153 -329 z m 81 0 l 81 824 l 1071 824 l 1071 0 z m 906 660 l 246 660 l 246 165 l 906 165 z m 518 1079 l 818 1113 l 818 978 l 518 944 z "},"ô":{"ha":1151,"x_min":0,"x_max":0,"o":"m 1153 1319 l -1 1319 l -1 -329 l 1153 -329 z m 81 0 l 81 824 l 1071 824 l 1071 0 z m 906 660 l 246 660 l 246 165 l 906 165 z m 560 1079 l 613 1079 l 743 944 l 428 944 z "},"õ":{"ha":1151,"x_min":0,"x_max":0,"o":"m 1153 1319 l -1 1319 l -1 -329 l 1153 -329 z m 81 0 l 81 824 l 1071 824 l 1071 0 z m 906 660 l 246 660 l 246 165 l 906 165 z m 451 1079 l 736 1079 l 736 944 l 451 944 z "},"ö":{"ha":1151,"x_min":0,"x_max":0,"o":"m 676 1079 l 811 1079 l 811 944 l 676 944 z m 1153 1319 l -1 1319 l -1 -329 l 1153 -329 z m 81 0 l 81 824 l 1071 824 l 1071 0 z m 906 660 l 246 660 l 246 165 l 906 165 z m 363 1079 l 499 1079 l 499 944 l 363 944 z "},"ø":{"ha":1151,"x_min":0,"x_max":0,"o":"m 1153 1319 l -1 1319 l -1 -329 l 1153 -329 z m 81 0 l 81 824 l 1071 824 l 1071 0 z m 906 165 l 906 583 l 357 165 z m 246 246 l 786 660 l 246 660 z "},"ù":{"ha":1151,"x_min":0,"x_max":0,"o":"m 1153 1319 l -1 1319 l -1 -329 l 1153 -329 z m 81 0 l 81 824 l 246 824 l 246 165 l 906 165 l 906 824 l 1071 824 l 1071 0 z m 353 1113 l 653 1079 l 653 944 l 353 978 z "},"ú":{"ha":1151,"x_min":0,"x_max":0,"o":"m 1153 1319 l -1 1319 l -1 -329 l 1153 -329 z m 81 0 l 81 824 l 246 824 l 246 165 l 906 165 l 906 824 l 1071 824 l 1071 0 z m 518 1079 l 818 1113 l 818 978 l 518 944 z "},"û":{"ha":1151,"x_min":0,"x_max":0,"o":"m 1153 1319 l -1 1319 l -1 -329 l 1153 -329 z m 81 0 l 81 824 l 246 824 l 246 165 l 906 165 l 906 824 l 1071 824 l 1071 0 z m 560 1079 l 613 1079 l 743 944 l 428 944 z "},"ü":{"ha":1151,"x_min":0,"x_max":0,"o":"m 685 1079 l 819 1079 l 819 944 l 685 944 z m 1153 1319 l -1 1319 l -1 -329 l 1153 -329 z m 81 0 l 81 824 l 246 824 l 246 165 l 906 165 l 906 824 l 1071 824 l 1071 0 z m 357 1079 l 492 1079 l 492 944 l 357 944 z "},"ý":{"ha":1151,"x_min":0,"x_max":0,"o":"m 1153 -329 l 1153 1319 l -1 1319 l -1 -329 l 81 -329 l 81 -165 l 906 -165 l 906 0 l 81 0 l 81 824 l 246 824 l 246 165 l 906 165 l 906 824 l 1071 824 l 1071 -329 z m 458 1079 l 758 1113 l 758 978 l 458 944 z "},"þ":{"ha":1151,"x_min":0,"x_max":0,"o":"m 246 0 l 246 -329 l 1153 -329 l 1153 1319 l 246 1319 l 246 824 l 1071 824 l 1071 0 z m 906 660 l 246 660 l 246 165 l 906 165 z m -1 -329 l 81 -329 l 81 1319 l -1 1319 z "},"ÿ":{"ha":1151,"x_min":0,"x_max":0,"o":"m 1153 -329 l 1153 1319 l -1 1319 l -1 -329 l 81 -329 l 81 -165 l 906 -165 l 906 0 l 81 0 l 81 824 l 246 824 l 246 165 l 906 165 l 906 824 l 1071 824 l 1071 -329 z m 639 1079 l 774 1079 l 774 944 l 639 944 z m 379 1079 l 515 1079 l 515 944 l 379 944 z "},"Ā":{"ha":1151,"x_min":0,"x_max":0,"o":"m 1071 824 l 81 824 l 81 660 l 1071 660 z m 1071 494 l 81 494 l 81 0 l 1071 0 z m 246 165 l 246 329 l 906 329 l 906 165 z m 426 944 l 726 944 l 726 1079 l 426 1079 z "},"ā":{"ha":1151,"x_min":0,"x_max":0,"o":"m 1153 1319 l -1 1319 l -1 -329 l 1153 -329 z m 81 660 l 81 824 l 1071 824 l 1071 660 z m 81 0 l 81 494 l 1071 494 l 1071 0 z m 906 329 l 246 329 l 246 165 l 906 165 z m 451 1079 l 736 1079 l 736 944 l 451 944 z "},"Ă":{"ha":1151,"x_min":0,"x_max":0,"o":"m 1071 824 l 81 824 l 81 660 l 1071 660 z m 1071 494 l 81 494 l 81 0 l 1071 0 z m 246 165 l 246 329 l 906 329 l 906 165 z m 733 1079 l 418 1079 l 550 944 l 603 944 z "},"ă":{"ha":1151,"x_min":0,"x_max":0,"o":"m 1153 1319 l -1 1319 l -1 -329 l 1153 -329 z m 81 660 l 81 824 l 1071 824 l 1071 660 z m 81 0 l 81 494 l 1071 494 l 1071 0 z m 906 329 l 246 329 l 246 165 l 906 165 z m 601 944 l 549 944 l 417 1079 l 733 1079 z "},"Ą":{"ha":1151,"x_min":0,"x_max":0,"o":"m 81 0 l 713 0 l 713 -329 l 1071 -329 l 1071 -165 l 878 -165 l 878 0 l 1071 0 l 1071 494 l 81 494 z m 1071 824 l 81 824 l 81 660 l 1071 660 z m 246 165 l 246 329 l 906 329 l 906 165 z "},"ą":{"ha":1151,"x_min":0,"x_max":0,"o":"m 81 0 l 81 494 l 1071 494 l 1071 0 l 960 0 l 960 -165 l 1153 -165 l 1153 1319 l -1 1319 l -1 -329 l 794 -329 l 794 0 z m 81 660 l 81 824 l 1071 824 l 1071 660 z m 906 329 l 246 329 l 246 165 l 906 165 z "},"Ć":{"ha":1151,"x_min":0,"x_max":0,"o":"m 1071 0 l 1071 165 l 246 165 l 246 660 l 1071 660 l 1071 824 l 81 824 l 81 0 z m 426 944 l 726 978 l 726 1113 l 426 1079 z "},"ć":{"ha":1151,"x_min":0,"x_max":0,"o":"m 1153 1319 l -1 1319 l -1 -329 l 1153 -329 z m 81 0 l 81 824 l 1071 824 l 1071 660 l 246 660 l 246 165 l 1071 165 l 1071 0 z m 425 1079 l 725 1113 l 725 978 l 425 944 z "},"Ċ":{"ha":1151,"x_min":0,"x_max":0,"o":"m 1071 0 l 1071 165 l 246 165 l 246 660 l 1071 660 l 1071 824 l 81 824 l 81 0 z m 508 944 l 643 944 l 643 1079 l 508 1079 z "},"ċ":{"ha":1151,"x_min":0,"x_max":0,"o":"m 1153 1319 l -1 1319 l -1 -329 l 1153 -329 z m 81 0 l 81 824 l 1071 824 l 1071 660 l 246 660 l 246 165 l 1071 165 l 1071 0 z m 508 1079 l 643 1079 l 643 944 l 508 944 z "},"Č":{"ha":1151,"x_min":0,"x_max":0,"o":"m 1071 0 l 1071 165 l 246 165 l 246 660 l 1071 660 l 1071 824 l 81 824 l 81 0 z m 733 1079 l 418 1079 l 550 944 l 603 944 z "},"č":{"ha":1151,"x_min":0,"x_max":0,"o":"m 1153 1319 l -1 1319 l -1 -329 l 1153 -329 z m 81 0 l 81 824 l 1071 824 l 1071 660 l 246 660 l 246 165 l 1071 165 l 1071 0 z m 601 944 l 549 944 l 417 1079 l 733 1079 z "},"Ď":{"ha":1151,"x_min":0,"x_max":0,"o":"m 1071 993 l 1153 993 l 1153 1154 l 906 1154 l 906 824 l 81 824 l 81 0 l 1071 0 z m 246 165 l 246 660 l 906 660 l 906 165 z "},"ď":{"ha":1151,"x_min":0,"x_max":0,"o":"m 81 0 l 81 824 l 906 824 l 906 1154 l 1153 1154 l 1153 1319 l -1 1319 l -1 -329 l 1153 -329 l 1153 993 l 1071 993 l 1071 0 z m 906 660 l 246 660 l 246 165 l 906 165 z "},"Đ":{"ha":1151,"x_min":0,"x_max":0,"o":"m 1153 1154 l 658 1154 l 658 989 l 906 989 l 906 824 l 81 824 l 81 0 l 1071 0 l 1071 989 l 1153 989 z m 246 165 l 246 660 l 906 660 l 906 165 z "},"đ":{"ha":1151,"x_min":0,"x_max":0,"o":"m 1153 989 l 1071 989 l 1071 0 l 81 0 l 81 824 l 906 824 l 906 989 l 658 989 l 658 1154 l 1153 1154 l 1153 1319 l -1 1319 l -1 -329 l 1153 -329 z m 906 165 l 906 660 l 246 660 l 246 165 z "},"Ē":{"ha":1151,"x_min":0,"x_max":0,"o":"m 1071 824 l 81 824 l 81 660 l 1071 660 z m 1071 494 l 81 494 l 81 329 l 1071 329 z m 1071 165 l 81 165 l 81 0 l 1071 0 z m 426 944 l 726 944 l 726 1079 l 426 1079 z "},"ē":{"ha":1151,"x_min":0,"x_max":0,"o":"m 1153 1319 l -1 1319 l -1 -329 l 1153 -329 z m 81 660 l 81 824 l 1071 824 l 1071 660 z m 81 329 l 81 494 l 1071 494 l 1071 329 z m 81 0 l 81 165 l 1071 165 l 1071 0 z m 425 1079 l 725 1079 l 725 944 l 425 944 z "},"Ĕ":{"ha":1151,"x_min":0,"x_max":0,"o":"m 1071 824 l 81 824 l 81 660 l 1071 660 z m 1071 494 l 81 494 l 81 329 l 1071 329 z m 1071 165 l 81 165 l 81 0 l 1071 0 z m 733 1079 l 418 1079 l 550 944 l 603 944 z "},"ĕ":{"ha":1151,"x_min":0,"x_max":0,"o":"m 1153 1319 l -1 1319 l -1 -329 l 1153 -329 z m 81 660 l 81 824 l 1071 824 l 1071 660 z m 81 329 l 81 494 l 1071 494 l 1071 329 z m 81 0 l 81 165 l 1071 165 l 1071 0 z m 601 944 l 549 944 l 417 1079 l 733 1079 z "},"Ė":{"ha":1151,"x_min":0,"x_max":0,"o":"m 1071 824 l 81 824 l 81 660 l 1071 660 z m 1071 494 l 81 494 l 81 329 l 1071 329 z m 1071 165 l 81 165 l 81 0 l 1071 0 z m 508 944 l 643 944 l 643 1079 l 508 1079 z "},"ė":{"ha":1151,"x_min":0,"x_max":0,"o":"m 1153 1319 l -1 1319 l -1 -329 l 1153 -329 z m 81 660 l 81 824 l 1071 824 l 1071 660 z m 81 329 l 81 494 l 1071 494 l 1071 329 z m 81 0 l 81 165 l 1071 165 l 1071 0 z m 508 1079 l 643 1079 l 643 944 l 508 944 z "},"Ę":{"ha":1151,"x_min":0,"x_max":0,"o":"m 713 -329 l 1071 -329 l 1071 -165 l 878 -165 l 878 0 l 1071 0 l 1071 165 l 81 165 l 81 0 l 713 0 z m 1071 824 l 81 824 l 81 660 l 1071 660 z m 1071 494 l 81 494 l 81 329 l 1071 329 z "},"ę":{"ha":1151,"x_min":0,"x_max":0,"o":"m 81 0 l 81 165 l 1071 165 l 1071 0 l 960 0 l 960 -165 l 1153 -165 l 1153 1319 l -1 1319 l -1 -329 l 794 -329 l 794 0 z m 81 329 l 81 494 l 1071 494 l 1071 329 z m 81 660 l 81 824 l 1071 824 l 1071 660 z "},"Ě":{"ha":1151,"x_min":0,"x_max":0,"o":"m 1071 824 l 81 824 l 81 660 l 1071 660 z m 1071 494 l 81 494 l 81 329 l 1071 329 z m 1071 165 l 81 165 l 81 0 l 1071 0 z m 733 1079 l 418 1079 l 550 944 l 603 944 z "},"ě":{"ha":1151,"x_min":0,"x_max":0,"o":"m 1153 1319 l -1 1319 l -1 -329 l 1153 -329 z m 81 660 l 81 824 l 1071 824 l 1071 660 z m 81 329 l 81 494 l 1071 494 l 1071 329 z m 81 0 l 81 165 l 1071 165 l 1071 0 z m 601 944 l 549 944 l 417 1079 l 733 1079 z "},"Ğ":{"ha":1151,"x_min":0,"x_max":0,"o":"m 1071 824 l 81 824 l 81 0 l 906 0 l 906 -165 l 81 -165 l 81 -329 l 1071 -329 z m 246 165 l 246 660 l 906 660 l 906 165 z m 733 1079 l 418 1079 l 550 944 l 603 944 z "},"ğ":{"ha":1151,"x_min":0,"x_max":0,"o":"m 1153 -329 l 1153 1319 l -1 1319 l -1 -329 l 81 -329 l 81 -165 l 906 -165 l 906 0 l 81 0 l 81 824 l 1071 824 l 1071 -329 z m 906 660 l 246 660 l 246 165 l 906 165 z m 601 944 l 549 944 l 417 1079 l 733 1079 z "},"Ġ":{"ha":1151,"x_min":0,"x_max":0,"o":"m 1071 824 l 81 824 l 81 0 l 906 0 l 906 -165 l 81 -165 l 81 -329 l 1071 -329 z m 246 165 l 246 660 l 906 660 l 906 165 z m 508 944 l 643 944 l 643 1079 l 508 1079 z "},"ġ":{"ha":1151,"x_min":0,"x_max":0,"o":"m 1153 -329 l 1153 1319 l -1 1319 l -1 -329 l 81 -329 l 81 -165 l 906 -165 l 906 0 l 81 0 l 81 824 l 1071 824 l 1071 -329 z m 906 660 l 246 660 l 246 165 l 906 165 z m 508 1079 l 643 1079 l 643 944 l 508 944 z "},"Ģ":{"ha":1151,"x_min":0,"x_max":0,"o":"m 1071 824 l 693 824 l 624 1154 l 458 1154 l 528 824 l 81 824 l 81 0 l 906 0 l 906 -165 l 81 -165 l 81 -329 l 1071 -329 z m 246 165 l 246 660 l 906 660 l 906 165 z "},"ģ":{"ha":1151,"x_min":0,"x_max":0,"o":"m 458 1154 l 624 1154 l 693 824 l 1071 824 l 1071 -329 l 1153 -329 l 1153 1319 l -1 1319 l -1 -329 l 81 -329 l 81 -165 l 906 -165 l 906 0 l 81 0 l 81 824 l 528 824 z m 906 660 l 246 660 l 246 165 l 906 165 z "},"Ħ":{"ha":1151,"x_min":0,"x_max":0,"o":"m -1 989 l 81 989 l 81 0 l 246 0 l 246 660 l 906 660 l 906 0 l 1071 0 l 1071 824 l 246 824 l 246 989 l 521 989 l 521 1154 l -1 1154 z "},"ħ":{"ha":1151,"x_min":0,"x_max":0,"o":"m -1 1154 l 521 1154 l 521 989 l 246 989 l 246 824 l 1071 824 l 1071 0 l 906 0 l 906 660 l 246 660 l 246 0 l 81 0 l 81 989 l -1 989 l -1 -329 l 1153 -329 l 1153 1319 l -1 1319 z "},"Ī":{"ha":326,"x_min":0,"x_max":0,"o":"m 246 824 l 81 824 l 81 0 l 246 0 z m 14 944 l 314 944 l 314 1079 l 14 1079 z "},"ī":{"ha":326,"x_min":0,"x_max":0,"o":"m 328 -329 l 328 944 l -1 944 l -1 -329 z m 81 0 l 81 824 l 246 824 l 246 0 z m 328 1319 l -1 1319 l -1 1079 l 328 1079 z "},"Ĭ":{"ha":326,"x_min":0,"x_max":0,"o":"m 246 824 l 81 824 l 81 0 l 246 0 z m 321 1079 l 6 1079 l 138 944 l 190 944 z "},"ĭ":{"ha":326,"x_min":0,"x_max":0,"o":"m 328 1319 l -1 1319 l -1 -329 l 328 -329 z m 81 0 l 81 824 l 246 824 l 246 0 z m 190 944 l 138 944 l 6 1079 l 322 1079 z "},"Į":{"ha":326,"x_min":0,"x_max":0,"o":"m 81 -329 l 328 -329 l 328 -165 l 246 -165 l 246 824 l 81 824 z "},"į":{"ha":326,"x_min":0,"x_max":0,"o":"m 81 824 l 246 824 l 246 -165 l 328 -165 l 328 1319 l -1 1319 l -1 -329 l 81 -329 z "},"İ":{"ha":326,"x_min":0,"x_max":0,"o":"m 246 824 l 81 824 l 81 0 l 246 0 z m 96 944 l 231 944 l 231 1079 l 96 1079 z "},"ı":{"ha":326,"x_min":0,"x_max":0,"o":"m 328 1319 l -1 1319 l -1 -329 l 328 -329 z m 81 0 l 81 824 l 246 824 l 246 0 z "},"Ĳ":{"ha":1481,"x_min":0,"x_max":0,"o":"m 246 824 l 81 824 l 81 0 l 246 0 z m 1400 824 l 1235 824 l 1235 -165 l 410 -165 l 410 -329 l 1400 -329 z "},"ĳ":{"ha":1481,"x_min":0,"x_max":0,"o":"m 1482 -329 l 1482 1319 l -1 1319 l -1 -329 l 411 -329 l 411 -165 l 1235 -165 l 1235 824 l 1400 824 l 1400 -329 z m 81 0 l 81 824 l 246 824 l 246 0 z "},"Ķ":{"ha":1151,"x_min":0,"x_max":0,"o":"m 450 660 l 1071 660 l 1071 824 l 246 824 l 246 1154 l 81 1154 l 81 0 l 246 0 l 246 650 l 856 0 l 1071 0 z m 513 -161 l 640 -161 l 640 0 l 513 0 z "},"ķ":{"ha":1151,"x_min":0,"x_max":0,"o":"m 1153 1319 l -1 1319 l -1 -329 l 1153 -329 z m 856 0 l 246 650 l 246 0 l 81 0 l 81 1154 l 246 1154 l 246 824 l 1071 824 l 1071 660 l 450 660 l 1071 0 z m 513 0 l 640 0 l 640 -161 l 513 -161 z "},"Ĺ":{"ha":326,"x_min":0,"x_max":0,"o":"m 14 944 l 81 951 l 81 0 l 246 0 l 246 969 l 314 978 l 314 1113 l 14 1079 z "},"ĺ":{"ha":326,"x_min":0,"x_max":0,"o":"m 328 1319 l -1 1319 l -1 -329 l 328 -329 z m 81 0 l 81 951 l 14 944 l 14 1079 l 314 1113 l 314 978 l 246 969 l 246 0 z "},"Ļ":{"ha":326,"x_min":0,"x_max":0,"o":"m 81 -161 l 246 -161 l 246 1154 l 81 1154 z "},"ļ":{"ha":326,"x_min":0,"x_max":0,"o":"m 328 1319 l -1 1319 l -1 -329 l 328 -329 z m 81 -161 l 81 1154 l 246 1154 l 246 -161 z "},"Ľ":{"ha":326,"x_min":0,"x_max":0,"o":"m 81 -161 l 246 -161 l 246 993 l 328 993 l 328 1154 l 81 1154 z "},"ľ":{"ha":326,"x_min":0,"x_max":0,"o":"m 81 -161 l 81 1154 l 328 1154 l 328 1319 l -1 1319 l -1 -329 l 328 -329 l 328 993 l 246 993 l 246 -161 z "},"Ŀ":{"ha":326,"x_min":0,"x_max":0,"o":"m 246 1154 l 81 1154 l 81 0 l 246 0 l 246 540 l 328 540 l 328 676 l 246 676 z "},"ŀ":{"ha":326,"x_min":0,"x_max":0,"o":"m 81 0 l 81 1154 l 246 1154 l 246 676 l 328 676 l 328 1319 l -1 1319 l -1 -329 l 328 -329 l 328 540 l 246 540 l 246 0 z "},"Ł":{"ha":326,"x_min":0,"x_max":0,"o":"m 328 740 l 246 706 l 246 1154 l 81 1154 l 81 636 l -1 603 l -1 439 l 81 471 l 81 0 l 246 0 l 246 540 l 328 575 z "},"ł":{"ha":326,"x_min":0,"x_max":0,"o":"m 328 575 l 246 540 l 246 0 l 81 0 l 81 471 l -1 439 l -1 -329 l 328 -329 z m 328 1319 l -1 1319 l -1 603 l 81 636 l 81 1154 l 246 1154 l 246 706 l 328 740 z "},"Ń":{"ha":1151,"x_min":0,"x_max":0,"o":"m 246 660 l 906 660 l 906 0 l 1071 0 l 1071 824 l 81 824 l 81 0 l 246 0 z m 426 944 l 726 978 l 726 1113 l 426 1079 z "},"ń":{"ha":1151,"x_min":0,"x_max":0,"o":"m 1153 1319 l -1 1319 l -1 -329 l 1153 -329 z m 906 0 l 906 660 l 246 660 l 246 0 l 81 0 l 81 824 l 1071 824 l 1071 0 z m 425 1079 l 725 1113 l 725 978 l 425 944 z "},"Ņ":{"ha":1151,"x_min":0,"x_max":0,"o":"m 246 660 l 906 660 l 906 0 l 1071 0 l 1071 824 l 81 824 l 81 0 l 246 0 z m 513 -161 l 640 -161 l 640 0 l 513 0 z "},"ņ":{"ha":1151,"x_min":0,"x_max":0,"o":"m 1153 1319 l -1 1319 l -1 -329 l 1153 -329 z m 906 0 l 906 660 l 246 660 l 246 0 l 81 0 l 81 824 l 1071 824 l 1071 0 z m 513 0 l 640 0 l 640 -161 l 513 -161 z "},"Ň":{"ha":1151,"x_min":0,"x_max":0,"o":"m 246 660 l 906 660 l 906 0 l 1071 0 l 1071 824 l 81 824 l 81 0 l 246 0 z m 733 1079 l 418 1079 l 550 944 l 603 944 z "},"ň":{"ha":1151,"x_min":0,"x_max":0,"o":"m 1153 1319 l -1 1319 l -1 -329 l 1153 -329 z m 906 0 l 906 660 l 246 660 l 246 0 l 81 0 l 81 824 l 1071 824 l 1071 0 z m 601 944 l 549 944 l 417 1079 l 733 1079 z "},"Ŋ":{"ha":1151,"x_min":0,"x_max":0,"o":"m 246 660 l 906 660 l 906 -165 l 81 -165 l 81 -329 l 1071 -329 l 1071 824 l 81 824 l 81 0 l 246 0 z "},"ŋ":{"ha":1151,"x_min":0,"x_max":0,"o":"m 1153 -329 l 1153 1319 l -1 1319 l -1 -329 l 81 -329 l 81 -165 l 906 -165 l 906 660 l 246 660 l 246 0 l 81 0 l 81 824 l 1071 824 l 1071 -329 z "},"Ō":{"ha":1151,"x_min":0,"x_max":0,"o":"m 1071 824 l 81 824 l 81 0 l 1071 0 z m 246 165 l 246 660 l 906 660 l 906 165 z m 426 944 l 726 944 l 726 1079 l 426 1079 z "},"ō":{"ha":1151,"x_min":0,"x_max":0,"o":"m 1153 1319 l -1 1319 l -1 -329 l 1153 -329 z m 81 0 l 81 824 l 1071 824 l 1071 0 z m 906 660 l 246 660 l 246 165 l 906 165 z m 451 1079 l 736 1079 l 736 944 l 451 944 z "},"Ŏ":{"ha":1151,"x_min":0,"x_max":0,"o":"m 1071 824 l 81 824 l 81 0 l 1071 0 z m 246 165 l 246 660 l 906 660 l 906 165 z m 733 1079 l 418 1079 l 550 944 l 603 944 z "},"ŏ":{"ha":1151,"x_min":0,"x_max":0,"o":"m 1153 1319 l -1 1319 l -1 -329 l 1153 -329 z m 81 0 l 81 824 l 1071 824 l 1071 0 z m 906 660 l 246 660 l 246 165 l 906 165 z m 601 944 l 549 944 l 417 1079 l 733 1079 z "},"Ő":{"ha":1151,"x_min":0,"x_max":0,"o":"m 1071 824 l 81 824 l 81 0 l 1071 0 z m 246 165 l 246 660 l 906 660 l 906 165 z m 599 944 l 733 944 l 833 1163 l 697 1163 z m 318 944 l 454 944 l 553 1163 l 417 1163 z "},"ő":{"ha":1151,"x_min":0,"x_max":0,"o":"m 1153 1319 l -1 1319 l -1 -329 l 1153 -329 z m 81 0 l 81 824 l 1071 824 l 1071 0 z m 906 660 l 246 660 l 246 165 l 906 165 z m 697 1163 l 833 1163 l 733 944 l 599 944 z m 417 1163 l 553 1163 l 454 944 l 318 944 z "},"Œ":{"ha":2306,"x_min":0,"x_max":0,"o":"m 2224 824 l 81 824 l 81 0 l 1071 0 l 1071 660 l 2224 660 z m 246 165 l 246 660 l 906 660 l 906 165 z m 2224 494 l 1235 494 l 1235 329 l 2224 329 z m 2224 165 l 1235 165 l 1235 0 l 2224 0 z "},"œ":{"ha":2306,"x_min":0,"x_max":0,"o":"m 2307 1319 l -1 1319 l -1 -329 l 2307 -329 z m 1071 660 l 1071 0 l 81 0 l 81 824 l 2224 824 l 2224 660 z m 906 660 l 246 660 l 246 165 l 906 165 z m 1235 329 l 1235 494 l 2224 494 l 2224 329 z m 1235 0 l 1235 165 l 2224 165 l 2224 0 z "},"Ŕ":{"ha":1151,"x_min":0,"x_max":0,"o":"m 246 660 l 1071 660 l 1071 824 l 81 824 l 81 0 l 246 0 z m 426 944 l 726 978 l 726 1113 l 426 1079 z "},"ŕ":{"ha":1151,"x_min":0,"x_max":0,"o":"m 1153 1319 l -1 1319 l -1 -329 l 1153 -329 z m 246 660 l 246 0 l 81 0 l 81 824 l 1071 824 l 1071 660 z m 425 1079 l 725 1113 l 725 978 l 425 944 z "},"Ŗ":{"ha":1151,"x_min":0,"x_max":0,"o":"m 246 660 l 1071 660 l 1071 824 l 81 824 l 81 0 l 246 0 z m 513 -161 l 640 -161 l 640 0 l 513 0 z "},"ŗ":{"ha":1151,"x_min":0,"x_max":0,"o":"m 1153 1319 l -1 1319 l -1 -329 l 1153 -329 z m 246 660 l 246 0 l 81 0 l 81 824 l 1071 824 l 1071 660 z m 513 0 l 640 0 l 640 -161 l 513 -161 z "},"Ř":{"ha":1151,"x_min":0,"x_max":0,"o":"m 246 660 l 1071 660 l 1071 824 l 81 824 l 81 0 l 246 0 z m 733 1079 l 418 1079 l 550 944 l 603 944 z "},"ř":{"ha":1151,"x_min":0,"x_max":0,"o":"m 1153 1319 l -1 1319 l -1 -329 l 1153 -329 z m 246 660 l 246 0 l 81 0 l 81 824 l 1071 824 l 1071 660 z m 601 944 l 549 944 l 417 1079 l 733 1079 z "},"Ś":{"ha":1151,"x_min":0,"x_max":0,"o":"m 1071 0 l 1071 494 l 246 494 l 246 660 l 1071 660 l 1071 824 l 81 824 l 81 329 l 906 329 l 906 165 l 81 165 l 81 0 z m 426 944 l 726 978 l 726 1113 l 426 1079 z "},"ś":{"ha":1151,"x_min":0,"x_max":0,"o":"m 1153 1319 l -1 1319 l -1 -329 l 1153 -329 z m 81 0 l 81 165 l 906 165 l 906 329 l 81 329 l 81 824 l 1071 824 l 1071 660 l 246 660 l 246 494 l 1071 494 l 1071 0 z m 425 1079 l 725 1113 l 725 978 l 425 944 z "},"Ş":{"ha":1151,"x_min":0,"x_max":0,"o":"m 513 -161 l 640 -161 l 640 0 l 1071 0 l 1071 494 l 246 494 l 246 660 l 1071 660 l 1071 824 l 81 824 l 81 329 l 906 329 l 906 165 l 81 165 l 81 0 l 513 0 z "},"ş":{"ha":1151,"x_min":0,"x_max":0,"o":"m 1153 1319 l -1 1319 l -1 -329 l 1153 -329 z m 81 0 l 81 165 l 906 165 l 906 329 l 81 329 l 81 824 l 1071 824 l 1071 660 l 246 660 l 246 494 l 1071 494 l 1071 0 l 640 0 l 640 -161 l 513 -161 l 513 0 z "},"Š":{"ha":1151,"x_min":0,"x_max":0,"o":"m 1071 0 l 1071 494 l 246 494 l 246 660 l 1071 660 l 1071 824 l 81 824 l 81 329 l 906 329 l 906 165 l 81 165 l 81 0 z m 733 1079 l 418 1079 l 550 944 l 603 944 z "},"š":{"ha":1151,"x_min":0,"x_max":0,"o":"m 1153 1319 l -1 1319 l -1 -329 l 1153 -329 z m 81 0 l 81 165 l 906 165 l 906 329 l 81 329 l 81 824 l 1071 824 l 1071 660 l 246 660 l 246 494 l 1071 494 l 1071 0 z m 601 944 l 549 944 l 417 1079 l 733 1079 z "},"Ţ":{"ha":1151,"x_min":0,"x_max":0,"o":"m 513 -161 l 640 -161 l 640 0 l 1071 0 l 1071 165 l 246 165 l 246 660 l 1071 660 l 1071 824 l 246 824 l 246 1154 l 81 1154 l 81 0 l 513 0 z "},"ţ":{"ha":1151,"x_min":0,"x_max":0,"o":"m 1153 1319 l -1 1319 l -1 -329 l 1153 -329 z m 81 0 l 81 1154 l 246 1154 l 246 824 l 1071 824 l 1071 660 l 246 660 l 246 165 l 1071 165 l 1071 0 l 640 0 l 640 -161 l 513 -161 l 513 0 z "},"Ť":{"ha":1151,"x_min":0,"x_max":0,"o":"m 1071 165 l 246 165 l 246 660 l 1071 660 l 1071 824 l 246 824 l 246 1154 l 81 1154 l 81 0 l 1071 0 z m 1153 1154 l 1025 1154 l 1025 993 l 1153 993 z "},"ť":{"ha":1151,"x_min":0,"x_max":0,"o":"m 1025 1154 l 1153 1154 l 1153 1319 l -1 1319 l -1 -329 l 1153 -329 l 1153 993 l 1025 993 z m 81 0 l 81 1154 l 246 1154 l 246 824 l 1071 824 l 1071 660 l 246 660 l 246 165 l 1071 165 l 1071 0 z "},"Ŧ":{"ha":1151,"x_min":0,"x_max":0,"o":"m 740 494 l 246 494 l 246 660 l 1071 660 l 1071 824 l 246 824 l 246 1154 l 81 1154 l 81 0 l 1071 0 l 1071 165 l 246 165 l 246 329 l 740 329 z "},"ŧ":{"ha":1151,"x_min":0,"x_max":0,"o":"m 1153 1319 l -1 1319 l -1 -329 l 1153 -329 z m 740 329 l 246 329 l 246 165 l 1071 165 l 1071 0 l 81 0 l 81 1154 l 246 1154 l 246 824 l 1071 824 l 1071 660 l 246 660 l 246 494 l 740 494 z "},"Ũ":{"ha":1151,"x_min":0,"x_max":0,"o":"m 1071 0 l 1071 824 l 906 824 l 906 165 l 246 165 l 246 824 l 81 824 l 81 0 z m 426 944 l 726 944 l 726 1079 l 426 1079 z "},"ũ":{"ha":1151,"x_min":0,"x_max":0,"o":"m 1153 1319 l -1 1319 l -1 -329 l 1153 -329 z m 81 0 l 81 824 l 246 824 l 246 165 l 906 165 l 906 824 l 1071 824 l 1071 0 z m 425 1079 l 725 1079 l 725 944 l 425 944 z "},"Ū":{"ha":1151,"x_min":0,"x_max":0,"o":"m 1071 0 l 1071 824 l 906 824 l 906 165 l 246 165 l 246 824 l 81 824 l 81 0 z m 426 944 l 726 944 l 726 1079 l 426 1079 z "},"ū":{"ha":1151,"x_min":0,"x_max":0,"o":"m 1153 1319 l -1 1319 l -1 -329 l 1153 -329 z m 81 0 l 81 824 l 246 824 l 246 165 l 906 165 l 906 824 l 1071 824 l 1071 0 z m 425 1079 l 725 1079 l 725 944 l 425 944 z "},"Ŭ":{"ha":1151,"x_min":0,"x_max":0,"o":"m 1071 0 l 1071 824 l 906 824 l 906 165 l 246 165 l 246 824 l 81 824 l 81 0 z m 733 1079 l 418 1079 l 550 944 l 603 944 z "},"ŭ":{"ha":1151,"x_min":0,"x_max":0,"o":"m 1153 1319 l -1 1319 l -1 -329 l 1153 -329 z m 81 0 l 81 824 l 246 824 l 246 165 l 906 165 l 906 824 l 1071 824 l 1071 0 z m 601 944 l 549 944 l 417 1079 l 733 1079 z "},"Ů":{"ha":1151,"x_min":0,"x_max":0,"o":"m 1071 0 l 1071 824 l 906 824 l 906 165 l 246 165 l 246 824 l 81 824 l 81 0 z m 508 944 l 643 944 l 643 1079 l 508 1079 z "},"ů":{"ha":1151,"x_min":0,"x_max":0,"o":"m 1153 1319 l -1 1319 l -1 -329 l 1153 -329 z m 81 0 l 81 824 l 246 824 l 246 165 l 906 165 l 906 824 l 1071 824 l 1071 0 z m 508 1079 l 643 1079 l 643 944 l 508 944 z "},"Ű":{"ha":1151,"x_min":0,"x_max":0,"o":"m 1071 0 l 1071 824 l 906 824 l 906 165 l 246 165 l 246 824 l 81 824 l 81 0 z m 599 944 l 733 944 l 833 1163 l 697 1163 z m 318 944 l 454 944 l 553 1163 l 417 1163 z "},"ű":{"ha":1151,"x_min":0,"x_max":0,"o":"m 1153 1319 l -1 1319 l -1 -329 l 1153 -329 z m 81 0 l 81 824 l 246 824 l 246 165 l 906 165 l 906 824 l 1071 824 l 1071 0 z m 697 1163 l 833 1163 l 733 944 l 599 944 z m 417 1163 l 553 1163 l 454 944 l 318 944 z "},"Ų":{"ha":1151,"x_min":0,"x_max":0,"o":"m 713 -329 l 1071 -329 l 1071 -165 l 878 -165 l 878 0 l 1071 0 l 1071 824 l 906 824 l 906 165 l 246 165 l 246 824 l 81 824 l 81 0 l 713 0 z "},"ų":{"ha":1151,"x_min":0,"x_max":0,"o":"m 81 0 l 81 824 l 246 824 l 246 165 l 906 165 l 906 824 l 1071 824 l 1071 0 l 960 0 l 960 -165 l 1153 -165 l 1153 1319 l -1 1319 l -1 -329 l 794 -329 l 794 0 z "},"Ŵ":{"ha":1151,"x_min":0,"x_max":0,"o":"m 1071 824 l 906 824 l 906 165 l 658 165 l 658 824 l 493 824 l 493 165 l 246 165 l 246 824 l 81 824 l 81 0 l 1071 0 z m 418 944 l 733 944 l 603 1079 l 550 1079 z "},"ŵ":{"ha":1151,"x_min":0,"x_max":0,"o":"m 1153 1319 l -1 1319 l -1 -329 l 1153 -329 z m 81 0 l 81 824 l 246 824 l 246 165 l 493 165 l 493 824 l 658 824 l 658 165 l 906 165 l 906 824 l 1071 824 l 1071 0 z m 549 1079 l 601 1079 l 733 944 l 417 944 z "},"Ŷ":{"ha":1151,"x_min":0,"x_max":0,"o":"m 1071 824 l 906 824 l 906 165 l 246 165 l 246 824 l 81 824 l 81 0 l 906 0 l 906 -165 l 81 -165 l 81 -329 l 1071 -329 z m 418 944 l 733 944 l 603 1079 l 550 1079 z "},"ŷ":{"ha":1151,"x_min":0,"x_max":0,"o":"m 1153 -329 l 1153 1319 l -1 1319 l -1 -329 l 81 -329 l 81 -165 l 906 -165 l 906 0 l 81 0 l 81 824 l 246 824 l 246 165 l 906 165 l 906 824 l 1071 824 l 1071 -329 z m 549 1079 l 601 1079 l 733 944 l 417 944 z "},"Ÿ":{"ha":1151,"x_min":0,"x_max":0,"o":"m 1071 824 l 906 824 l 906 165 l 246 165 l 246 824 l 81 824 l 81 0 l 906 0 l 906 -165 l 81 -165 l 81 -329 l 1071 -329 z m 638 944 l 774 944 l 774 1079 l 638 1079 z m 379 944 l 514 944 l 514 1079 l 379 1079 z "},"Ź":{"ha":1151,"x_min":0,"x_max":0,"o":"m 1071 165 l 464 165 l 1071 824 l 81 824 l 81 660 l 688 660 l 81 0 l 1071 0 z m 426 944 l 726 978 l 726 1113 l 426 1079 z "},"ź":{"ha":1151,"x_min":0,"x_max":0,"o":"m 1153 1319 l -1 1319 l -1 -329 l 1153 -329 z m 81 0 l 688 660 l 81 660 l 81 824 l 1071 824 l 464 165 l 1071 165 l 1071 0 z m 425 1079 l 725 1113 l 725 978 l 425 944 z "},"Ż":{"ha":1151,"x_min":0,"x_max":0,"o":"m 1071 165 l 464 165 l 1071 824 l 81 824 l 81 660 l 688 660 l 81 0 l 1071 0 z m 508 944 l 643 944 l 643 1079 l 508 1079 z "},"ż":{"ha":1151,"x_min":0,"x_max":0,"o":"m 1153 1319 l -1 1319 l -1 -329 l 1153 -329 z m 81 0 l 688 660 l 81 660 l 81 824 l 1071 824 l 464 165 l 1071 165 l 1071 0 z m 508 1079 l 643 1079 l 643 944 l 508 944 z "},"Ž":{"ha":1151,"x_min":0,"x_max":0,"o":"m 1071 165 l 464 165 l 1071 824 l 81 824 l 81 660 l 688 660 l 81 0 l 1071 0 z m 733 1079 l 418 1079 l 550 944 l 603 944 z "},"ž":{"ha":1151,"x_min":0,"x_max":0,"o":"m 1153 1319 l -1 1319 l -1 -329 l 1153 -329 z m 81 0 l 688 660 l 81 660 l 81 824 l 1071 824 l 464 165 l 1071 165 l 1071 0 z m 601 944 l 549 944 l 417 1079 l 733 1079 z "},"Ș":{"ha":1151,"x_min":0,"x_max":0,"o":"m 513 -161 l 640 -161 l 640 0 l 1071 0 l 1071 494 l 246 494 l 246 660 l 1071 660 l 1071 824 l 81 824 l 81 329 l 906 329 l 906 165 l 81 165 l 81 0 l 513 0 z "},"ș":{"ha":1151,"x_min":0,"x_max":0,"o":"m 1153 1319 l -1 1319 l -1 -329 l 1153 -329 z m 81 0 l 81 165 l 906 165 l 906 329 l 81 329 l 81 824 l 1071 824 l 1071 660 l 246 660 l 246 494 l 1071 494 l 1071 0 l 640 0 l 640 -161 l 513 -161 l 513 0 z "},"Ț":{"ha":1151,"x_min":0,"x_max":0,"o":"m 513 -161 l 640 -161 l 640 0 l 1071 0 l 1071 165 l 246 165 l 246 660 l 1071 660 l 1071 824 l 246 824 l 246 1154 l 81 1154 l 81 0 l 513 0 z "},"ț":{"ha":1151,"x_min":0,"x_max":0,"o":"m 1153 1319 l -1 1319 l -1 -329 l 1153 -329 z m 81 0 l 81 1154 l 246 1154 l 246 824 l 1071 824 l 1071 660 l 246 660 l 246 165 l 1071 165 l 1071 0 l 640 0 l 640 -161 l 513 -161 l 513 0 z "},"ˆ":{"ha":1151,"x_min":0,"x_max":0,"o":"m 428 944 l 743 944 l 613 1079 l 560 1079 z "},"ˇ":{"ha":1151,"x_min":0,"x_max":0,"o":"m 743 1079 l 428 1079 l 560 944 l 613 944 z "},"˘":{"ha":1151,"x_min":0,"x_max":0,"o":"m 743 1079 l 428 1079 l 560 944 l 613 944 z "},"˙":{"ha":1151,"x_min":0,"x_max":0,"o":"m 518 944 l 653 944 l 653 1079 l 518 1079 z "},"˚":{"ha":1151,"x_min":0,"x_max":0,"o":"m 518 944 l 653 944 l 653 1079 l 518 1079 z "},"˛":{"ha":1151,"x_min":0,"x_max":0,"o":"m 794 -329 l 1153 -329 l 1153 -165 l 960 -165 l 960 0 l 794 0 z "},"˜":{"ha":1151,"x_min":0,"x_max":0,"o":"m 436 944 l 736 944 l 736 1079 l 436 1079 z "},"˝":{"ha":1151,"x_min":0,"x_max":0,"o":"m 633 944 l 768 944 l 868 1163 l 732 1163 z m 353 944 l 489 944 l 588 1163 l 451 1163 z "},"Ẁ":{"ha":1151,"x_min":0,"x_max":0,"o":"m 1071 824 l 906 824 l 906 165 l 658 165 l 658 824 l 493 824 l 493 165 l 246 165 l 246 824 l 81 824 l 81 0 l 1071 0 z m 425 978 l 725 944 l 725 1079 l 425 1113 z "},"ẁ":{"ha":1151,"x_min":0,"x_max":0,"o":"m 1153 1319 l -1 1319 l -1 -329 l 1153 -329 z m 81 0 l 81 824 l 246 824 l 246 165 l 493 165 l 493 824 l 658 824 l 658 165 l 906 165 l 906 824 l 1071 824 l 1071 0 z m 425 1113 l 725 1079 l 725 944 l 425 978 z "},"Ẃ":{"ha":1151,"x_min":0,"x_max":0,"o":"m 1071 824 l 906 824 l 906 165 l 658 165 l 658 824 l 493 824 l 493 165 l 246 165 l 246 824 l 81 824 l 81 0 l 1071 0 z m 426 944 l 726 978 l 726 1113 l 426 1079 z "},"ẃ":{"ha":1151,"x_min":0,"x_max":0,"o":"m 1153 1319 l -1 1319 l -1 -329 l 1153 -329 z m 81 0 l 81 824 l 246 824 l 246 165 l 493 165 l 493 824 l 658 824 l 658 165 l 906 165 l 906 824 l 1071 824 l 1071 0 z m 425 1079 l 725 1113 l 725 978 l 425 944 z "},"Ẅ":{"ha":1151,"x_min":0,"x_max":0,"o":"m 1071 824 l 906 824 l 906 165 l 658 165 l 658 824 l 493 824 l 493 165 l 246 165 l 246 824 l 81 824 l 81 0 l 1071 0 z m 638 944 l 774 944 l 774 1079 l 638 1079 z m 379 944 l 514 944 l 514 1079 l 379 1079 z "},"ẅ":{"ha":1151,"x_min":0,"x_max":0,"o":"m 1153 1319 l -1 1319 l -1 -329 l 1153 -329 z m 81 0 l 81 824 l 246 824 l 246 165 l 493 165 l 493 824 l 658 824 l 658 165 l 906 165 l 906 824 l 1071 824 l 1071 0 z m 639 1079 l 774 1079 l 774 944 l 639 944 z m 379 1079 l 515 1079 l 515 944 l 379 944 z "},"Ỳ":{"ha":1151,"x_min":0,"x_max":0,"o":"m 1071 824 l 906 824 l 906 165 l 246 165 l 246 824 l 81 824 l 81 0 l 906 0 l 906 -165 l 81 -165 l 81 -329 l 1071 -329 z m 425 978 l 725 944 l 725 1079 l 425 1113 z "},"ỳ":{"ha":1151,"x_min":0,"x_max":0,"o":"m 1153 -329 l 1153 1319 l -1 1319 l -1 -329 l 81 -329 l 81 -165 l 906 -165 l 906 0 l 81 0 l 81 824 l 246 824 l 246 165 l 906 165 l 906 824 l 1071 824 l 1071 -329 z m 425 1113 l 725 1079 l 725 944 l 425 978 z "},"‘":{"ha":326,"x_min":0,"x_max":0,"o":"m 115 824 l 281 824 l 211 1154 l 46 1154 z "},"’":{"ha":326,"x_min":0,"x_max":0,"o":"m 281 1154 l 115 1154 l 46 824 l 211 824 z "},"‚":{"ha":326,"x_min":0,"x_max":0,"o":"m 281 178 l 115 178 l 46 -151 l 211 -151 z "},"“":{"ha":657,"x_min":0,"x_max":0,"o":"m 446 824 l 610 824 l 542 1154 l 376 1154 z m 115 824 l 281 824 l 211 1154 l 46 1154 z "},"”":{"ha":657,"x_min":0,"x_max":0,"o":"m 610 1154 l 446 1154 l 376 824 l 542 824 z m 281 1154 l 115 1154 l 46 824 l 211 824 z "},"„":{"ha":657,"x_min":0,"x_max":0,"o":"m 610 178 l 446 178 l 376 -151 l 542 -151 z m 281 178 l 115 178 l 46 -151 l 211 -151 z "},"…":{"ha":1471,"x_min":0,"x_max":0,"o":"m 246 165 l 81 165 l 81 0 l 246 0 z m 818 165 l 653 165 l 653 0 l 818 0 z m 1390 165 l 1225 165 l 1225 0 l 1390 0 z "},"‹":{"ha":376,"x_min":0,"x_max":0,"o":"m 324 575 l 324 678 l 67 544 l 67 447 l 324 319 l 324 418 l 156 497 z "},"›":{"ha":376,"x_min":0,"x_max":0,"o":"m 67 422 l 67 319 l 324 453 l 324 550 l 67 678 l 67 579 l 235 501 z "},"€":{"ha":1181,"x_min":0,"x_max":0,"o":"m 1100 0 l 1100 165 l 275 165 l 275 267 l 750 267 l 817 364 l 275 364 l 275 464 l 883 464 l 950 563 l 275 563 l 275 660 l 1015 660 l 1128 824 l 111 824 l 111 563 l 42 563 l 42 464 l 111 464 l 111 364 l 42 364 l 42 267 l 111 267 l 111 0 z "},"™":{"ha":922,"x_min":0,"x_max":0,"o":"m 415 1229 l 415 1319 l 88 1319 l 88 1229 l 204 1229 l 204 863 l 301 863 l 301 1229 z m 756 864 l 847 864 l 847 1319 l 740 1319 l 654 1085 l 567 1319 l 457 1319 l 457 864 l 547 864 l 547 1124 l 657 861 l 756 1114 z "}}}
